<?xml version="1.0" standalone="no"?>
<!DOCTYPE svg PUBLIC "-//W3C//DTD SVG 1.1//EN" "http://www.w3.org/Graphics/SVG/1.1/DTD/svg11.dtd" >
<!--
2013-9-30: Created.
-->
<svg>
<metadata>
Created by iconfont
</metadata>
<defs>

<font id="iconfont" horiz-adv-x="1024" >
  <font-face
    font-family="iconfont"
    font-weight="500"
    font-stretch="normal"
    units-per-em="1024"
    ascent="896"
    descent="-128"
  />
    <missing-glyph />
    
    <glyph glyph-name="iconquanbu" unicode="&#58948;" d="M411 688H279.5c-39.4 0-71.5-32.1-71.5-71.5V485c0-39.4 32.1-71.5 71.5-71.5H411c39.4 0 71.5 32.1 71.5 71.5V616.5c0 39.4-32.1 71.5-71.5 71.5z m42.9-203c0-23.6-19.2-42.9-42.9-42.9H279.5c-23.6 0-42.9 19.2-42.9 42.9V616.5c0 23.6 19.2 42.9 42.9 42.9H411c23.6 0 42.9-19.2 42.9-42.9V485zM744.5 688H613c-39.4 0-71.5-32.1-71.5-71.5V485c0-39.4 32.1-71.5 71.5-71.5h131.5c39.4 0 71.5 32.1 71.5 71.5V616.5c0 39.4-32.1 71.5-71.5 71.5z m42.9-203c0-23.6-19.2-42.9-42.9-42.9H613c-23.6 0-42.9 19.2-42.9 42.9V616.5c0 23.6 19.2 42.9 42.9 42.9h131.5c23.6 0 42.9-19.2 42.9-42.9V485zM411 354.5H279.5c-39.4 0-71.5-32.1-71.5-71.5v-131.5c0-39.4 32.1-71.5 71.5-71.5H411c39.4 0 71.5 32.1 71.5 71.5V283c0 39.4-32.1 71.5-71.5 71.5z m42.9-203c0-23.6-19.2-42.9-42.9-42.9H279.5c-23.6 0-42.9 19.2-42.9 42.9V283c0 23.6 19.2 42.9 42.9 42.9H411c23.6 0 42.9-19.2 42.9-42.9v-131.5zM678.8 368.79999999999995c-75.7 0-137.2-61.6-137.2-137.2s61.6-137.2 137.2-137.2S816 155.89999999999998 816 231.5s-61.6 137.3-137.2 137.3z m0-245.9c-59.9 0-108.6 48.7-108.6 108.6s48.7 108.6 108.6 108.6c59.9 0 108.6-48.7 108.6-108.6s-48.7-108.6-108.6-108.6z"  horiz-adv-x="1024" />

    
    <glyph glyph-name="geipaishui" unicode="&#58932;" d="M857.492732 374.525208C786.278807 620.875942 512 871.146962 512 871.146962s-274.278807-250.27102-345.492732-496.620731c-10.871605-34.444487-16.739243-71.109548-16.739243-109.146862 0-200.055338 162.176636-362.231975 362.231975-362.231975s362.231975 162.176636 362.231975 362.231975C874.231975 303.416683 868.363314 340.081745 857.492732 374.525208zM512-50.441577c-174.422542 0-315.820945 141.397381-315.820945 315.820945 0 2.204202 0.032746 4.41352 0.083911 6.624884 0.032746 1.570775 0.084934 3.137457 0.140193 4.702092 0.004093 0.098237 0.007163 0.197498 0.011256 0.295735 0.779759 21.551852 3.716648 42.550095 8.606005 62.790068C256.161171 565.414793 512 802.076864 512 802.076864s255.836783-236.660025 306.978557-462.281645c4.89038-20.243043 7.827269-41.244356 8.607028-62.799278 0.004093-0.094144 0.007163-0.188288 0.010233-0.282433 0.055259-1.568728 0.107447-3.13848 0.140193-4.713348 0.050142-2.202155 0.082888-4.402263 0.083911-6.597255 0-0.008186 0-0.01535 0-0.023536C827.820945 90.956827 686.422542-50.441577 512-50.441577zM291.450908 331.124745c-7.28594-22.337751-11.218506-46.115294-11.218506-70.784136 0-126.172631 102.797247-229.097792 231.767598-234.663554l0 50.254567c-102.360296 5.961782-183.473685 88.163969-183.473685 188.713013 0 1.320065 0.020466 2.642177 0.052189 3.966335 0.020466 0.940418 0.052189 1.877767 0.086981 2.815115 0.002047 0.059352 0.004093 0.11768 0.007163 0.177032 0.483001 12.901845 2.299369 25.473161 5.324262 37.591153 26.359344 112.531959 140.602272 229.634004 178.004113 265.589914l0 68.320015C471.673549 605.311455 332.1304 467.296101 291.450908 331.124745z"  horiz-adv-x="1024" />

    
    <glyph glyph-name="lengji" unicode="&#58893;" d="M881.62 113.307V465.835h-71.084v-18.32H652.223v0.738c0 19.43-15.752 35.181-35.182 35.181v87.205c0 58.285-47.256 105.542-105.541 105.542h-71.839v17.418c0 19.43-15.735 35.181-35.18 35.181h-15.375c-19.36 0-35.061-15.657-35.164-35h-19.823c-12.678 0-23.705-6.786-29.89-16.861H142.103v0.825c0 19.273-15.633 34.906-34.906 34.906v-195.694c19.273 0 34.906 15.633 34.906 34.906v1.925h156.834v-1.649c0-19.428 15.771-35.182 35.182-35.182h19.893c0.514-18.998 15.976-34.26 35.095-34.26h15.375c19.445 0 35.18 15.751 35.18 35.179v19.061h37.381c9.721 0 17.589-7.875 17.589-17.591v-35.91h-0.704c-19.428 0-35.181-15.751-35.181-35.181v-0.738H213.185v18.32h-71.082v-88.69H89.332v-139.985h52.771v-123.853H89.332v-52.05h844.336v52.05H881.62z m-71.084 0H213.185v52.754h597.352v-52.754z"  horiz-adv-x="1024" />

    
    <glyph glyph-name="shengguangbaojingqi" unicode="&#58927;" d="M768 42.67V341.33c0 141.16-114.84 256-256 256s-256-114.84-256-256v-298.67H128v-85.33h768v85.33H768z m-426.67 0V341.33C341.33 435.44 417.89 512 512 512s170.67-76.56 170.67-170.67v-298.67H341.33zM469.88 424.46c-17.67 0-32-14.33-32-32V288c0-17.67 14.33-32 32-32s32 14.33 32 32V392.46c0 17.67-14.33 32-32 32zM479.26 663.82h62.75c0.35 0 0.63 0.28 0.63 0.63V826.96c0 0.35-0.28 0.63-0.63 0.63h-62.75c-0.35 0-0.63-0.28-0.63-0.63v-162.52c0-0.34 0.28-0.62 0.63-0.62zM289.46 580.28c0.24-0.24 0.64-0.24 0.88 0l44.37 44.37c0.24 0.24 0.24 0.64 0 0.88L219.8 740.46a0.628 0.628 0 0 1-0.88 0l-44.37-44.37c-0.24-0.24-0.24-0.64 0-0.88l114.91-114.93zM730.92 580.28c0.24-0.24 0.64-0.24 0.88 0L846.72 695.2c0.24 0.24 0.24 0.64 0 0.88l-44.37 44.37a0.628 0.628 0 0 1-0.88 0L686.55 625.54c-0.24-0.24-0.24-0.64 0-0.88l44.37-44.38z"  horiz-adv-x="1024" />

    
    <glyph glyph-name="icon_close" unicode="&#58924;" d="M511.968 519.776l284.128 284.128c37.44 37.472 98.304 37.472 135.744 0 37.472-37.472 37.472-98.304 0-135.776l-284.096-284.128 284.096-284.096c37.472-37.472 37.472-98.304 0-135.776-37.44-37.472-98.304-37.472-135.744 0l-284.128 284.128-284.128-284.128c-37.44-37.472-98.304-37.472-135.744 0-37.472 37.472-37.472 98.304 0 135.776l284.128 284.096-284.128 284.128c-37.472 37.472-37.472 98.304 0 135.776 37.44 37.472 98.304 37.472 135.744 0l284.128-284.128z"  horiz-adv-x="1024" />

    
    <glyph glyph-name="jiantoushang" unicode="&#58925;" d="M910.222222 99.555556c-17.066667 0-34.133333 5.688889-45.511111 17.066666L551.822222 486.4c-11.377778 5.688889-17.066667 11.377778-34.133333 11.377778-5.688889 0-22.755556-5.688889-28.444445-11.377778l-329.955555-364.088889c-22.755556-22.755556-56.888889-22.755556-79.644445-5.688889-22.755556 22.755556-22.755556 56.888889-5.688888 79.644445l329.955555 364.088889c28.444444 34.133333 73.955556 51.2 119.466667 51.2s85.333333-22.755556 119.466666-56.888889l312.888889-364.088889c22.755556-22.755556 17.066667-56.888889-5.688889-79.644445-11.377778-5.688889-28.444444-11.377778-39.822222-11.377777z"  horiz-adv-x="1024" />

    
    <glyph glyph-name="jiantouxia" unicode="&#58926;" d="M517.688889 99.555556c-45.511111 0-85.333333 17.066667-119.466667 51.2L73.955556 514.844444c-22.755556 22.755556-17.066667 56.888889 5.688888 79.644445 22.755556 22.755556 56.888889 17.066667 79.644445-5.688889l329.955555-364.088889c5.688889-5.688889 17.066667-11.377778 28.444445-11.377778s22.755556 5.688889 34.133333 17.066667l312.888889 364.088889c22.755556 22.755556 56.888889 28.444444 79.644445 5.688889 22.755556-22.755556 28.444444-56.888889 5.688888-79.644445L637.155556 156.444444c-28.444444-39.822222-68.266667-56.888889-119.466667-56.888888 5.688889 0 0 0 0 0z"  horiz-adv-x="1024" />

    
    <glyph glyph-name="dianwei" unicode="&#59084;" d="M493.03 95.04999999999995l20.02-16.49 20.02 16.49c11.78 9.42 266.13 227.27 266.13 435.7 0 157.79-128.36 286.15-286.15 286.15-157.8 0-286.15-128.36-286.15-286.15 0-207.26 255.54-426.29 266.13-435.7z m20.02 659.43c123.65 0 223.74-100.1 224.92-223.74 0-149.55-166.04-317.94-224.92-372.11-57.7 55.35-224.91 222.56-224.91 372.11 0 123.65 101.27 223.74 224.91 223.74z m0 0M661.43 534.28c-2.35 82.43-70.66 147.2-151.91 144.84-82.43-2.35-147.2-70.65-144.84-151.9 2.36-82.43 70.65-146.02 151.91-144.84 82.42 2.35 147.19 70.65 144.84 151.9z m-235.52-5.89c-1.17 48.28 36.5 88.31 84.79 89.49 48.28 1.18 88.32-36.5 89.49-84.78 1.18-48.28-36.5-88.32-84.78-89.5-48.28-1.17-88.32 36.51-89.5 84.79z m297.93-333.25c-2.35 1.18-4.71 1.18-7.06 0-2.35-1.17-3.53-2.35-4.71-4.71-2.35-8.24-4.71-15.31-9.42-22.38-1.17-2.36 0-5.89 3.54-7.06 35.33-17.66 54.16-38.86 54.16-61.24 0-54.16-111.87-98.91-248.46-98.91-136.6 0-248.47 44.75-248.47 98.91 0 22.38 18.84 43.57 54.17 61.24 3.53 1.17 4.7 4.7 3.53 7.06-3.53 7.06-5.89 15.31-8.24 22.38-1.18 2.35-2.36 3.53-4.71 4.71-2.36 1.18-4.71 1.18-7.06 0-60.06-24.73-93.03-58.87-93.03-95.38 0-73.01 118.93-148.37 303.82-148.37 204.9 0 303.81 75.36 303.81 148.37 1.16 36.5-31.81 70.65-91.87 95.38z m0 0"  horiz-adv-x="1024" />

    
    <glyph glyph-name="floor-settings" unicode="&#58969;" d="M927.232 218.11199999999997l-415.232-204.8-415.232 204.8a38.4 38.4 0 0 1-33.792-69.12l432.128-211.456a38.4 38.4 0 0 1 14.848-3.584 38.4 38.4 0 0 1 14.848 3.584l432.128 211.456a38.4 38.4 0 0 1-29.696 69.12zM927.232 416.256l-415.232-204.8-415.232 204.8a38.4 38.4 0 1 1-33.792-69.12l432.128-211.456a38.4 38.4 0 0 1 14.848-3.584 38.4 38.4 0 0 1 14.848 3.584l432.128 211.456a38.4 38.4 0 1 1-29.696 69.12zM982.528 583.168a38.4 38.4 0 0 1-21.504 35.84l-432.128 211.456h-7.68L512 834.048H497.152l-434.176-215.04a38.4 38.4 0 0 1-21.504-35.84 38.4 38.4 0 0 1 21.504-35.84L495.104 332.79999999999995a38.4 38.4 0 0 1 16.896 0 38.4 38.4 0 0 1 15.36 0l432.128 211.456a38.4 38.4 0 0 1 21.504 35.84zM512 411.648L162.816 582.656 512 753.152l349.184-171.008z"  horiz-adv-x="1024" />

    
    <glyph glyph-name="liebiao" unicode="&#58918;" d="M848 560H368c-26.5 0-48 21.5-48 48s21.5 48 48 48h480c26.5 0 48-21.5 48-48s-21.5-48-48-48zM848 336H368c-26.5 0-48 21.5-48 48s21.5 48 48 48h480c26.5 0 48-21.5 48-48s-21.5-48-48-48zM848 112H368c-26.5 0-48 21.5-48 48s21.5 48 48 48h480c26.5 0 48-21.5 48-48s-21.5-48-48-48zM176 608m-48 0a48 48 0 1 1 96 0 48 48 0 1 1-96 0ZM176 384m-48 0a48 48 0 1 1 96 0 48 48 0 1 1-96 0ZM176 160m-48 0a48 48 0 1 1 96 0 48 48 0 1 1-96 0Z"  horiz-adv-x="1024" />

    
    <glyph glyph-name="xuanzhong" unicode="&#58996;" d="M726.976697 502.815858c-12.54369 12.447359-32.831716 12.320065-45.248112-0.25631L448.447252 266.75124300000004l-103.26354 106.112189c-12.352748 12.703669-32.60809 12.927295-45.248112 0.639914-12.672705-12.320065-12.959978-32.60809-0.639914-45.248112l126.016611-129.503454c0.063647-0.096331 0.192662-0.096331 0.25631-0.192662 0.063647-0.063647 0.096331-0.192662 0.159978-0.25631 2.016073-1.983389 4.512082-3.19957 6.880796-4.544765 1.247144-0.672598 2.239699-1.792447 3.519527-2.303346 3.872168-1.599785 8.000645-2.399677 12.096439-2.399677 4.06483 0 8.12794 0.799892 11.967424 2.33603 1.247144 0.512619 2.208735 1.536138 3.392232 2.176052 2.399677 1.343475 4.895686 2.528692 6.944443 4.544765 0.063647 0.063647 0.096331 0.192662 0.192662 0.25631 0.063647 0.096331 0.159978 0.127295 0.25631 0.192662l256.223626 259.008628C739.647682 470.111437 739.520387 490.368499 726.976697 502.815858zM832-32.00085999999999l-640 0c-52.9288 0-96.00086 43.07206-96.00086 95.99914l0 640c0 52.9288 43.07206 96.00086 96.00086 96.00086l640 0c52.92708 0 95.99914-43.07206 95.99914-96.00086l0-640C928.00086 11.071199999999976 884.9288-32.00085999999999 832-32.00085999999999zM192 735.99914c-17.632039 0-32.00086-14.368821-32.00086-32.00086l0-640c0-17.664722 14.368821-31.99914 32.00086-31.99914l640 0c17.664722 0 31.99914 14.336138 31.99914 31.99914l0 640c0 17.632039-14.336138 32.00086-31.99914 32.00086L192 735.99914z"  horiz-adv-x="1024" />

    
    <glyph glyph-name="weixuanzhong" unicode="&#58896;" d="M823.1-49.3H204c-67.6 0-122.7 55-122.7 122.7V692.5c0 67.6 55 122.7 122.7 122.7h619.1c67.6 0 122.7-55 122.7-122.7v-619.1c0-67.7-55.1-122.7-122.7-122.7zM204 757.8c-36 0-65.4-29.3-65.4-65.4v-619.1c0-36 29.3-65.4 65.4-65.4h619.1c36 0 65.4 29.3 65.4 65.4V692.5c0 36-29.3 65.4-65.4 65.4H204z"  horiz-adv-x="1024" />

    
    <glyph glyph-name="fanhui" unicode="&#58882;" d="M738.145103 725.751172 663.234207 800.662069 313.114483 450.542345 312.937931 450.701241 238.768552 376.549517 238.945103 376.372966 238.768552 376.214069 313.679448 301.303172 313.838345 301.462069 658.996966-43.696552 733.166345 30.490483 388.007724 375.631448Z"  horiz-adv-x="1024" />

    
    <glyph glyph-name="dianzixungeng" unicode="&#58891;" d="M578.215 486.088L416.613 324.486a27.392 27.392 0 0 1 0-38.737l405.701-405.717a27.392 27.392 0 0 1 38.737 0l161.602 161.602a27.392 27.392 0 0 1 0 38.737L616.952 486.088a27.392 27.392 0 0 1-38.737 0z m-33.264-125.986a27.2 27.2 0 1 0 0-38.4 27.2 27.2 0 0 0 0 38.4z m-56.08-56.08a27.2 27.2 0 1 0 0-38.401 27.2 27.2 0 0 0-0.065 38.4z m203.042 54.96a24.352 24.352 0 0 0 0-34.336L578.55 211.26800000000003a24.352 24.352 0 0 0-34.336 0 24.352 24.352 0 0 0 0 34.337l113.377 113.377a24.352 24.352 0 0 0 34.337 0z m-54.16 20.336a27.2 27.2 0 1 0 0 38.4 27.2 27.2 0 0 0 0-38.4z m179.201-169.89a89.057 89.057 0 1 0-125.937 0 89.057 89.057 0 0 0 125.937 0zM346.772 549.4169999999999a163.202 163.202 0 0 0 115.746 47.856 165.506 165.506 0 0 0 22.592-1.6l-7.84-56.385a108.433 108.433 0 0 1-14.784 1.025A106.865 106.865 0 0 1 355.653 433.67c0-2.256 0-4.544 0.208-6.768l-56.833-3.488c-0.208 3.408-0.32 6.88-0.272 10.352a163.202 163.202 0 0 0 48.016 115.65zM237.46 658.906a316.212 316.212 0 0 0 225.139 93.041c6.816 0 13.712-0.224 20.48-0.656l-3.648-56.785c-5.568 0.368-11.2 0.544-16.88 0.544a261.38 261.38 0 0 1-261.603-261.187h-56.93a316.212 316.212 0 0 0 93.41 224.963zM135.682 760.86A459.318 459.318 0 0 0 462.726 895.996c6.608 0 13.28-0.16 19.888-0.432l-2.464-56.897c-5.792 0.24-11.696 0.4-17.472 0.384C239.123 839.26 57.105 657.546 56.945 434.007c0-3.104 0-6.208 0.096-9.264L0.128 423.511c0 3.456-0.112 7.008-0.112 10.528a459.318 459.318 0 0 0 135.666 326.82z"  horiz-adv-x="1030" />

    
    <glyph glyph-name="icon" unicode="&#58964;" d="M228.254587-17.306922 66.10251-17.306922l0 240.783948 162.152077 0L228.254587-17.306922zM471.464795-17.306922 309.318858-17.306922 309.318858 544.516834l162.145937 0L471.464795-17.306922zM714.681142-17.306922 552.540322-17.306922 552.540322 303.732885 714.681142 303.732885 714.681142-17.306922zM957.896466-17.306922 795.744389-17.306922 795.744389 785.306922l162.152077 0L957.896466-17.306922z"  horiz-adv-x="1024" />

    
    <glyph glyph-name="weihu" unicode="&#59039;" d="M910.912 604.864l-45.824-46.016c-48.832-49.024-128.32-49.024-177.152 0s-48.832 128.832 0 177.856l45.824 46.016c25.28 25.408 8.384 55.296-37.184 48.192a228.224 228.224 0 0 1-126.72-64.576 231.04 231.04 0 0 1-62.144-210.624l-384.32-385.92a126.208 126.208 0 0 1 0-177.792 124.992 124.992 0 0 1 177.088 0l384.384 385.92a229.12 229.12 0 0 1 274.048 189.568c7.104 45.76-22.656 62.784-48 37.376z m-669.44-553.536c-16.32-16.384-42.752-16.384-59.072 0s-16.32 42.88 0 59.264a41.856 41.856 0 0 0 59.072-59.264z m-41.728 545.856L344.448 451.84l59.072 59.264-144.704 145.344-32.448 62.208-103.296 74.112L64 733.504 137.792 629.76l61.952-32.576z m484.288-308.288a20.8 20.8 0 0 1-29.504 0l-88.576-88.96a21.056 21.056 0 0 1 0-29.632l208.96-209.792c32.64-32.704 85.568-32.704 118.144 0 32.64 32.704 32.64 85.824 0 118.592l-209.024 209.792z"  horiz-adv-x="1024" />

    
    <glyph glyph-name="rizhi" unicode="&#58900;" d="M904 657.5L746.2 811.8c-13.1 13.1-31 20-48.9 20H195.8c-53.7 0-97.1-44.1-97.1-97.8v-700c0-53.7 43.4-97.8 97.1-97.8h631.7c53.7 0 97.8 44.1 97.8 97.8V607.2c0 18.6-8.2 37.2-21.3 50.3zM856.4 34c0-15.8-13.1-28.9-28.9-28.9H195.8c-15.8 0-28.2 13.1-28.2 28.9V734c0 15.8 12.4 28.9 28.2 28.9l454-0.7v-121.9c0-57.2 46.2-103.3 103.3-103.3h103.3v-503z m0 571.8H753.1c-19.3 0-34.4 15.2-34.4 34.4v102l137.8-135v-1.4zM684 420.8H339.5c-19 0-34.4-15.4-34.4-34.4s15.4-34.4 34.4-34.4H684c19 0 34.4 15.4 34.4 34.4S703 420.8 684 420.8zM684 214.1H339.5c-19 0-34.4-15.4-34.4-34.4s15.4-34.4 34.4-34.4H684c19 0 34.4 15.4 34.4 34.4S703 214.1 684 214.1z"  horiz-adv-x="1024" />

    
    <glyph glyph-name="yonghu" unicode="&#58895;" d="M512 296c-71.6 0-138.9 27.9-189.5 78.5C271.9 425.1 244 492.4 244 564s27.9 138.9 78.5 189.5C373.1 804.1 440.4 832 512 832s138.9-27.9 189.5-78.5C752.1 702.9 780 635.6 780 564s-27.9-138.9-78.5-189.5C650.9 323.9 583.6 296 512 296z m0 472c-112.5 0-204-91.5-204-204s91.5-204 204-204 204 91.5 204 204-91.5 204-204 204zM128.8-64c-0.7 0-1.3 0-2 0.1-17.6 1.1-31.1 16.3-30 33.9 6.5 105.6 52.6 203.8 129.7 276.6C304 319.7 405.4 360 512 360s208-40.3 285.5-113.4c77.2-72.8 123.2-171.1 129.7-276.6 1.1-17.6-12.3-32.8-30-33.9-17.6-1.1-32.8 12.3-33.9 30-11.4 185-165.7 330-351.3 330-185.6 0-339.9-144.9-351.3-330-1.1-17-15.2-30.1-31.9-30.1z"  horiz-adv-x="1024" />

    
    <glyph glyph-name="baojing" unicode="&#58928;" d="M790.87 229.05V439.92c0 144.36-102.62 264.33-236.2 285.65v85.1h-85.33v-85.12c-133.5-21.39-236.03-141.32-236.03-285.61 0-11.4-0.04-33.6-0.04-33.68v-176.08c0-30.49-6.92-102.78-70.98-115.6L128 107.7v-79.92h147.85l152.19-0.31c7.17-39.88 42.02-70.14 83.96-70.14 41.82 0 76.59 30.09 83.9 69.8l152.17-0.31H896v79.92l-34.29 6.86c-63.94 12.81-70.85 84.95-70.84 115.45zM290.93 113.09c17.91 32.15 27.68 71.99 27.68 117.22V406.18s0.04 22.3 0.04 33.75c0 112.31 86.78 203.68 193.45 203.68s193.45-91.37 193.45-203.68V227.59c0.2-44.46 9.9-83.67 27.54-115.4l-442.16 0.9zM289.31 653.35l-54.35 65.78C134.44 636.09 76.8 513.75 76.8 383.5h85.33c0 104.72 46.36 203.08 127.18 269.85zM861.87 383.5h85.33c0 130.35-57.72 252.75-158.35 335.8l-54.32-65.81C815.45 586.7 861.87 488.3 861.87 383.5z"  horiz-adv-x="1024" />

    
    <glyph glyph-name="dianti" unicode="&#58990;" d="M442.816 684.16m-64.064 0a1.001 1.001 0 1 0 128.128 0 1.001 1.001 0 1 0-128.128 0ZM846.08 679.552 846.08 679.68c0 0-134.464 0-160.128 0-25.792 0-39.488-16.064-39.488-16.064L501.568 517.376 501.568 550.72c0 32.512-26.368 58.752-58.752 58.752-32.512 0-58.88-26.304-58.88-58.752l0-152.128L266.368 279.808 179.776 279.808C115.84 279.808 64 228.032 64 164.032c0-63.872 51.776-115.712 115.712-115.712 0 0 150.144 0 158.528 0 8.448 0 18.432 5.248 18.432 5.248s390.528 379.072 398.208 386.944c7.616 7.808 17.472 7.68 17.472 7.68l73.6 0L845.952 448.32C909.12 449.28 960 500.608 960 563.968 960 627.264 909.12 678.656 846.08 679.552zM842.88 505.024l-96.832 0-421.056-398.72L176.576 106.304c-31.68 0-57.344 25.664-57.344 57.344 0 31.68 25.664 57.344 57.344 57.344l106.432 0 412.096 399.168 147.776-0.448c31.616 0 57.344-25.664 57.344-57.344C900.16 530.624 874.496 505.024 842.88 505.024zM795.328 103.488l0.32 0 0 151.808c0 6.656-5.376 12.032-12.032 12.032L633.6 267.328l0-0.192c-10.816-0.448-19.712-13.696-19.712-30.08 0-16.448 8.896-29.696 19.84-30.144L633.6 206.848l60.16 0-94.464-94.464c-11.456-11.456-11.456-30.208 0-41.728 11.648-11.648 30.336-11.648 41.92 0l93.824 93.824 0-59.52c0 0 0 0 0-0.064 0 0 0 0 0-0.128l0-1.344 0.256 0c1.088-10.496 14.016-18.816 29.952-18.816C781.312 84.672 794.176 92.992 795.328 103.488z"  horiz-adv-x="1024" />

    
    <glyph glyph-name="tingchechang" unicode="&#59082;" d="M655.94368 585.68704c0 137.18016-112.94208 248.37632-252.27264 248.37632-6.34368 0-12.5696-0.47616-18.80064-0.93184L162.0224 833.13152l0-0.47104L48.00512 832.66048l0-910.50496 127.98976 0 0 415.9488 207.97952 0c9.76384-1.12128 9.64608-0.79872 19.70176-0.79872C543.00672 337.31072 655.94368 448.49664 655.94368 585.68704zM383.96928 466.0992 175.99488 466.0992 175.99488 706.08384l207.97952 0c60.79488-2.85184 116.52608-58.4448 116.52608-118.99392S444.76416 468.97664 383.96928 466.0992zM967.36768 146.32448c-4.0448 8.0896-15.1808 17.31072-15.1808 17.31072l-45.9008 122.88c-9.52832 23.29088-37.5808 35.57376-49.8176 35.57376l-241.07008 0c-12.24704 0-40.27904-12.28288-49.81248-35.57376l-45.91104-122.88c0 0-11.1104-9.22112-15.19104-17.31072-4.07552-8.05888-8.51456-15.27296-8.51456-69.74464 0-53.15072 10.65984-72.02304 23.3984-78.58176l10.07616-5.69344 0-49.34144c0-15.98976 3.79392-20.74624 18.9952-20.74624l34.08896 0c15.1808 0 25.41568-0.06144 25.41568 15.92832l0 47.98976 255.97952 0 0-47.98976c0-15.98976 10.21952-15.92832 25.40032-15.92832l34.0992 0c15.19104 0 18.98496 4.75648 18.98496 20.74624l0 49.34144 10.07616 5.69344c12.7488 6.5536 23.3984 25.4208 23.41888 78.58176C975.90784 131.05152 971.46368 138.2656 967.36768 146.32448zM580.8128 178.06336c1.90464 6.95808 14.65856 61.44 20.30592 80.32256 2.32448 6.51776 17.42336 25.94304 35.03616 24.83712l199.56224 0c17.60256 1.11104 32.7168-18.31424 35.00032-24.83712 5.67296-18.88256 18.4064-73.36448 20.33664-80.32256 2.27328-8.25344-5.22752-7.53152-5.22752-7.53152l-299.78112 0C586.04544 170.53696 578.52416 169.80992 580.8128 178.06336zM585.74848 44.672c-20.23424 0-36.6848 16.49152-36.6848 36.66432 0 20.21376 16.45056 36.66432 36.6848 36.66432 20.1984 0 36.64384-16.45056 36.64384-36.66432C622.40256 61.1584 605.952 44.672 585.74848 44.672zM887.25504 44.672c-20.21376 0-36.6848 16.49152-36.6848 36.66432 0 20.21376 16.47104 36.66432 36.6848 36.66432 20.19328 0 36.64896-16.45056 36.64896-36.66432C923.904 61.1584 907.44832 44.672 887.25504 44.672z"  horiz-adv-x="1024" />

    
    <glyph glyph-name="zongkeliuliang" unicode="&#58892;" d="M227.7 161c0 92.4 55.2 172.1 135.3 209.7 29.5-19 64.9-30.1 103-30.1 38.2 0 73.7 11.2 103.3 30.3C649.6 333.4 705 253.5 705 161c0.1-96.3-477.3-97.6-477.3 0z m351.8 251.4c-14.8-14.5-32.6-26.1-52.1-33.9-19.4-7.8-40.4-11.9-61.4-11.9s-42 4.1-61.4 11.9c-19.4 7.8-37.2 19.4-52.1 33.9-14.9 14.5-26.8 31.8-34.8 50.7-8 18.9-12.2 39.4-12.2 59.8 0 20.5 4.2 40.9 12.2 59.8 8 18.9 19.9 36.2 34.8 50.7 14.8 14.5 32.6 26.1 52.1 33.9 19.4 7.8 40.4 11.9 61.4 11.9s42-4.1 61.4-11.9c19.4-7.8 37.2-19.4 52.1-33.9 14.8-14.5 26.7-31.8 34.8-50.7 8-18.9 12.2-39.4 12.2-59.8 0-20.5-4.2-40.9-12.2-59.8-8.1-18.9-20-36.3-34.8-50.7zM596.1 632.8c14.8-14.5 26.7-31.8 34.7-50.6 8-18.9 12.2-39.3 12.2-59.7 0-20.4-4.2-40.8-12.2-59.7-8-18.9-19.9-36.2-34.7-50.6-3.7-3.7-7.7-7.1-11.8-10.4 12.6-4.1 26-6.1 39.3-6.1 16.4 0 32.8 3.2 48 9.3 15.2 6.1 29.1 15.2 40.7 26.5 11.6 11.3 20.9 24.9 27.2 39.7C745.8 486 749 502 749 518c0 16-3.3 32-9.5 46.8-6.3 14.8-15.6 28.3-27.2 39.7-11.6 11.3-25.5 20.4-40.7 26.5-15.2 6.1-31.6 9.3-48 9.3-10.5 0-21-1.3-31.1-3.8 1.2-1.4 2.4-2.6 3.6-3.7zM586 370.7c73-34.1 125.5-103.4 134.2-185.3 52 8.8 90.3 25.3 90.3 49.4 0 72.3-43.4 134.8-106.1 164.1-23.1-15-50.9-23.7-80.8-23.7-21.4 0-41.7 4.5-59.9 12.5-6.3-3.6-3.3-3.6-10.1-6.3"  horiz-adv-x="1024" />

    
    <glyph glyph-name="yedeng" unicode="&#58915;" d="M832.6 657l65.6 63.8c13.5 13.4 13.6 35.3 0.1 48.8l-0.1 0.1-1.3 0.5c-13.4 13.5-35.3 13.6-48.8 0.1l-0.1-0.1-64.4-64.4c-13.5-13.5-13.5-35.4 0-48.9 13.6-13.4 35.5-13.4 49 0.1zM191.4 111l-65.6-63.8c-13.5-13.4-13.6-35.3-0.1-48.8l0.1-0.1 1.3-0.5c13.4-13.5 35.3-13.6 48.8-0.1l0.1 0.1 64.4 64.4c13.5 13.5 13.5 35.4 0 48.9-13.6 13.4-35.5 13.4-49-0.1z m320.5 624.8h0.3c19.1 0 34.5 15.4 34.5 34.5V861.4C546.6 880.5 531.1 896 512 896s-34.6-15.5-34.6-34.6v-91.1c0-19.1 15.4-34.5 34.5-34.5z m-316.7-79c13.4-13.5 35.3-13.6 48.8-0.1l0.1 0.1 0.3-1c13.5 13.4 13.6 35.3 0.1 48.8l-0.1 0.1-62 65.9c-13.2 13.8-35.1 14.3-48.9 1-13.8-13.2-14.3-35.1-1-48.9l62.7-65.9zM160.6 384c0 19.1-15.5 34.6-34.6 34.6H34.6C15.5 418.6 0 403.1 0 384s15.5-34.6 34.6-34.6H126c19.1 0 34.6 15.5 34.6 34.6z m668.2-272.8c-13.4 13.5-35.3 13.6-48.8 0.1l-0.1-0.1-0.3 1c-13.5-13.4-13.6-35.3-0.1-48.8l0.1-0.1 62-65.9c13.2-13.8 35.1-14.3 48.9-1 13.8 13.2 14.3 35.1 1 48.9l-62.7 65.9z m160.6 307.4h-91.1c-19.1 0-34.6-15.5-34.6-34.6s15.5-34.6 34.6-34.6h91.1c19.1 0 34.6 15.5 34.6 34.6s-15.5 34.6-34.6 34.6zM512.1 32.2h-0.3c-19.1 0-34.5-15.4-34.5-34.5v-91.1c0-19.1 15.5-34.6 34.6-34.6s34.6 15.5 34.6 34.6v91.1c0.1 19.1-15.3 34.5-34.4 34.5z m267 343.1c-14.3 8.5-32.4 7.2-45.3-3.2-29.9-24-66.1-36.6-104.5-36.6-92.3 0-167.5 75.1-167.5 167.5 0 38.1 12.5 74 36 103.8 10.3 13 11.5 31.1 2.9 45.4-8.5 14.3-25 21.8-41.4 18.8-66.5-11.9-127.2-47-171.1-98.9-44.4-52.5-68.9-119.3-68.9-188.1 0-160.8 130.8-291.5 291.5-291.5 69 0 136 24.7 188.7 69.4 52 44.2 87 105.4 98.6 172.2 2.9 16.3-4.7 32.7-19 41.2zM647.8 222.7c-38.2-32.5-86.8-50.4-136.8-50.4-116.6 0-211.5 94.9-211.5 211.5 0 49.8 17.8 98.3 50 136.4 11.3 13.3 24 25.1 38 35.2-3.7-17.1-5.5-34.6-5.5-52.5 0-66.1 25.7-128.2 72.5-175 46.7-46.7 108.9-72.5 175-72.5 18.2 0 36.4 2 54 6-10.3-14.2-22.2-27.2-35.7-38.7z"  horiz-adv-x="1024" />

    
    <glyph glyph-name="gonganxiaofang" unicode="&#59578;" d="M583.622081-113.642019H313.359268c-27.650702 0-50.279026 22.627301-50.279027 50.278003V419.336739c0 101.986585 83.428964 185.426806 185.41555 185.426806 101.975329 0 185.415549-83.440221 185.415549-185.426806v-482.700755c0-27.650702-22.627301-50.278003-50.289259-50.278003zM356.211152 881.640996c59.697518 0 108.091618-48.3941 108.091618-108.092641 0-59.697518-48.3941-108.091618-108.091618-108.091618-59.697518 0-108.092641 48.3941-108.092641 108.091618 0 59.698541 48.3941 108.092641 108.092641 108.092641z m0-70.675525c-20.67893 0-37.416093-16.748419-37.416093-37.416093 0-20.657441 16.737163-37.416093 37.416093-37.416093 20.657441 0 37.416093 16.759675 37.416093 37.416093 0 20.667674-16.759675 37.416093-37.416093 37.416093zM259.746317 735.829364h377.184794v-87.998017H259.746317zM404.496782 667.1237h87.998018v-128.879018h-87.998018zM259.746317 735.829364s-152.697446-28.192029-181.387825-198.104521c-8.141408-48.178183 68.380253-59.459088 78.059688-13.262022 6.799856 32.522653 30.96416 114.533317 103.32916 123.368526 97.329528 11.887724-0.001023 87.998017-0.001023 87.998017zM946.246281 830.106376l-363.879794-94.277012v-87.998017l363.879794-88.789032z"  horiz-adv-x="1024" />

    
    <glyph glyph-name="GIS-tulitucengicon_paiqifa" unicode="&#58905;" d="M827.63776 343.04c-109.32224 3.72736-174.94016 10.52672-232.8576 16.384a80.56832 80.56832 0 0 1-50.74944 86.50752c5.40672 9.216 10.60864 18.14528 15.03232 25.51808 0 0 91.29984 133.9392 162.816 131.072 0 0 75.28448-6.5536 111.98464-62.54592 76.43136-104.89856 29.12256-167.44448-6.22592-197.18144z m-344.63744 102.93248a81.42848 81.42848 0 0 1-45.99808-48.49664c-10.81344 6.3488-21.34016 12.288-29.85984 17.6128 0 0-136.92928 93.34784-134.144 166.5024 0 0 6.71744 77.0048 63.93856 114.4832 107.27424 78.15168 171.2128 29.77792 201.60512-6.38976-3.80928-111.94368-10.77248-179.07712-16.95744-238.42816a80.97792 80.97792 0 0 1-38.58432-5.28384z m-45.056-106.74176a81.5104 81.5104 0 0 1 45.83424-45.056c-5.3248-9.09312-10.4448-17.85856-14.78656-25.10848 0 0-87.36768-128.12288-155.648-125.50144 0 0-72.00768 6.26688-107.1104 59.84256-73.1136 100.39296-27.8528 160.19456 5.9392 188.416 103.13728-3.52256 165.56032-9.91232 220.40576-15.60576a81.14176 81.14176 0 0 1 5.44768-37.02784z m37.92896 15.44192a40.96 40.96 0 1 0 75.1616 32.768l0.69632-1.67936a40.96 40.96 0 0 0-75.85792-30.88384zM544.768 294.21568a81.67424 81.67424 0 0 1 44.40064 43.66336c9.13408-5.3248 17.89952-10.48576 25.1904-14.86848 0 0 131.072-89.33376 128.28672-159.29344 0 0-6.43072-73.728-61.19424-109.48608-102.6048-74.752-163.84-28.672-192.83968 6.06208 3.6864 107.56096 10.36288 171.78624 16.384 228.72064a81.05984 81.05984 0 0 1 39.77216 5.20192z"  horiz-adv-x="1024" />

    
    <glyph glyph-name="jingcha" unicode="&#59021;" d="M522.453333 840.917333c59.477333-20.522667 124.928-49.621333 196.458667-87.253333 71.189333-37.482667 143.274667-80.746667 216.256-129.770667a32 32 0 0 0 4.181333-49.792 1022.293333 1022.293333 0 0 0-71.637333-62.037333 327.68 327.68 0 0 0 16.469333-78.826667 117.376 117.376 0 0 0-10.88-228.885333C831.146667 42.026667 683.669333-74.666667 512-74.666667S192.874667 42.005333 150.677333 204.373333a117.376 117.376 0 0 0-10.858666 228.864c2.304 27.370667 7.914667 53.781333 16.448 78.848a1019.306667 1019.306667 0 0 0-71.616 62.016 32 32 0 0 0 4.352 49.92c78.122667 51.712 150.144 94.933333 216.106666 129.621334 66.218667 34.858667 131.562667 63.914667 196.053334 87.125333a32 32 0 0 0 21.269333 0.149333z m290.389334-368.554666l-8.746667-5.696C707.562667 404.650667 610.133333 373.333333 512 373.333333c-101.077333 0-201.386667 33.216-300.8 99.008A265.066667 265.066667 0 0 1 202.666667 405.333333v-32H170.666667a53.333333 53.333333 0 1 1 3.754666-106.538666l28.373334 1.962666 5.269333-27.946666C235.456 95.872 362.709333-10.666667 512-10.666667s276.544 106.538667 303.936 251.477334l5.290667 27.946666 28.373333-1.962666A53.333333 53.333333 0 1 1 853.333333 373.333333h-32.021333V405.333333c0 23.146667-2.944 45.610667-8.490667 67.029334zM405.333333 362.666667v-106.666667h-85.333333v106.666667h85.333333z m298.666667 0v-106.666667h-85.333333v106.666667h85.333333z m33.706667 138.666666l-451.413334-0.021333C362.133333 458.538667 437.333333 437.333333 512 437.333333s149.888 21.205333 225.706667 64zM512.213333 776.661333a1495.232 1495.232 0 0 1-177.301333-79.658666c-54.229333-28.544-112.938667-63.168-176.149333-103.893334 11.136-9.728 22.250667-19.008 33.365333-27.84l639.765333 0.021334a913.984 913.984 0 0 1 33.493334 27.968 2245.290667 2245.290667 0 0 1-176.298667 103.744c-64.490667 33.92-123.477333 60.48-176.896 79.658666z"  horiz-adv-x="1024" />

    
    <glyph glyph-name="beikongshuiwupingtaimenhu-tubiao_ARzhihuixunjian" unicode="&#58919;" d="M361.411765 248.470588H240.941176c-16.564706 0-30.117647 13.552941-30.117647 30.117647s13.552941 30.117647 30.117647 30.117647h120.470589c16.564706 0 30.117647-13.552941 30.117647-30.117647s-13.552941-30.117647-30.117647-30.117647zM301.176471 158.117647H240.941176c-16.564706 0-30.117647 13.552941-30.117647 30.117647s13.552941 30.117647 30.117647 30.117647h60.235295c16.564706 0 30.117647-13.552941 30.117647-30.117647s-13.552941-30.117647-30.117647-30.117647zM993.882353 429.176471h-60.235294v90.352941c0 16.564706-13.552941 30.117647-30.117647 30.117647H120.470588c-16.564706 0-30.117647-13.552941-30.117647-30.117647v-90.352941H30.117647c-16.564706 0-30.117647-13.552941-30.117647-30.117647v-180.705883c0-16.564706 13.552941-30.117647 30.117647-30.117647h60.235294v-120.470588c0-16.564706 13.552941-30.117647 30.117647-30.117647h262.02353c6.625882 0 12.950588 2.108235 18.070588 6.023529l106.014118 80.112941a9.035294 9.035294 0 0 0 10.842352 0l106.917648-80.112941c5.12-3.915294 11.444706-6.023529 18.070588-6.023529H903.529412c16.564706 0 30.117647 13.552941 30.117647 30.117647v120.470588h60.235294c16.564706 0 30.117647 13.552941 30.117647 30.117647v180.705883c0 16.564706-13.552941 30.117647-30.117647 30.117647z m-903.529412-180.705883H60.235294v120.470588h30.117647v-120.470588z m780.950588-148.48h-218.051764l-98.18353 73.788236a71.318588 71.318588 0 0 1-86.13647 0l-97.28-73.487059H152.696471V368.941176H572.235294c16.564706 0 30.117647 13.552941 30.117647 30.117648s-13.552941 30.117647-30.117647 30.117647H152.696471v58.127058h718.305882v-387.312941zM963.764706 248.470588h-30.117647v120.470588h30.117647v-120.470588zM783.058824 368.941176c-7.830588 0-15.661176 3.312941-21.38353 8.734118-5.421176 5.722353-8.734118 13.552941-8.734118 21.38353 0 3.915294 0.903529 7.830588 2.409412 11.444705s3.614118 6.927059 6.324706 9.938824c11.143529 11.143529 31.623529 11.143529 42.767059 0 2.710588-3.011765 4.818824-6.324706 6.324706-9.938824 1.505882-3.614118 2.409412-7.529412 2.409412-11.444705 0-8.131765-3.312941-15.661176-8.734118-21.38353-5.722353-5.421176-13.552941-8.734118-21.383529-8.734118zM627.952941 645.722353a29.816471 29.816471 0 0 0-23.190588 10.842353 120.289882 120.289882 0 0 1-185.524706 0 30.117647 30.117647 0 0 0-42.465882-3.915294c-12.649412 10.541176-14.456471 29.515294-3.915294 42.465882C407.491765 736.677647 458.089412 760.470588 512 760.470588s104.508235-23.792941 139.143529-65.355294c10.541176-12.649412 8.734118-31.924706-3.915294-42.465882-5.722353-4.517647-12.649412-6.927059-19.275294-6.927059zM460.498824 581.270588a30.298353 30.298353 0 0 0-25.6 46.08A90.051765 90.051765 0 0 0 512 670.117647c30.117647 0 58.127059-14.757647 74.992941-39.755294 9.336471-13.854118 5.722353-32.527059-8.131765-41.863529a30.087529 30.087529 0 0 0-41.863529 8.131764c-11.444706 17.167059-39.755294 16.564706-50.597647-1.204706-5.722353-9.035294-15.661176-14.155294-25.901176-14.155294zM722.823529 278.588235c16.564706 0 30.117647-13.552941 30.117647-30.117647s-13.552941-30.117647-30.117647-30.117647-30.117647 13.552941-30.117647 30.117647 13.552941 30.117647 30.117647 30.117647m0 60.235294c-49.995294 0-90.352941-40.357647-90.352941-90.352941s40.357647-90.352941 90.352941-90.352941 90.352941 40.357647 90.352942 90.352941-40.357647 90.352941-90.352942 90.352941z"  horiz-adv-x="1024" />

    
    <glyph glyph-name="kongtiao" unicode="&#59008;" d="M875 811H149c-47.1 0-85.4-38.3-85.4-85.4v-298.9c0-47.1 38.3-85.4 85.4-85.4h726c47.1 0 85.4 38.3 85.4 85.4V725.6C960.4 772.7 922 811 875 811z m-0.2-384.3H149V725.6h726l-0.2-298.9zM405.2 554.8h213.5v-85.4H405.2zM661.5 554.8h85.4v-85.4h-85.4zM392.7 286.1c-16.7 16.7-43.7 16.7-60.4 0-5.7-5.7-55.2-58.1-55.2-158.3 0-63.6 20.8-93.1 34.6-112.6 7.8-11 8.1-12.1 8.1-15.5 0-23.6 19.1-42.7 42.7-42.7s42.7 19.1 42.7 42.7c0 31.3-13.7 50.7-23.7 64.8-10.2 14.4-19 26.8-19 63.3 0 63.9 28.6 96.1 30.6 98.3 16.3 16.7 16.2 43.5-0.4 60zM542.2 286.1c-16.7 16.7-43.7 16.7-60.4 0-5.7-5.7-55.2-58.1-55.2-158.3 0-63.6 20.8-93.1 34.6-112.6 7.8-11 8.1-12.1 8.1-15.5 0-23.6 19.1-42.7 42.7-42.7s42.7 19.1 42.7 42.7c0 31.3-13.7 50.7-23.7 64.8-10.2 14.4-19 26.8-19 63.3 0 63.9 28.6 96.1 30.6 98.3 16.3 16.7 16.1 43.5-0.4 60zM691.6 286.1c-16.7 16.7-43.7 16.7-60.4 0-5.7-5.7-55.2-58.1-55.2-158.3 0-63.6 20.8-93.1 34.6-112.6 7.8-11 8.1-12.1 8.1-15.5 0-23.6 19.1-42.7 42.7-42.7s42.7 19.1 42.7 42.7c0 31.3-13.7 50.7-23.7 64.8-10.2 14.4-19 26.8-19 63.3 0 63.9 28.6 96.1 30.6 98.3 16.3 16.7 16.2 43.5-0.4 60z"  horiz-adv-x="1024" />

    
    <glyph glyph-name="jiahao" unicode="&#59085;" d="M512 896c60.586667 0 109.738667-49.152 109.738667-109.738667l-0.085334-292.522666h292.693334a109.738667 109.738667 0 0 0 0-219.477334l-292.693334 0.085334v-292.693334a109.738667 109.738667 0 0 0-219.306666 0l-0.085334 292.693334H109.738667a109.738667 109.738667 0 0 0 0 219.306666l292.522666 0.085334V786.261333C402.261333 846.848 451.413333 896 512 896z"  horiz-adv-x="1024" />

    
    <glyph glyph-name="nengyuan" unicode="&#58967;" d="M646.9 37.9c-9.6 0-18.8 5-24 13.4-4.1 6.7-99.9 165-15.9 316.8C687.2 513.3 908.8 625.3 918.2 630c7.6 3.8 16.5 4 24.2 0.5 7.7-3.5 13.5-10.2 15.7-18.4 2.5-9.3 60.6-230.2-20.9-377.6-82.1-148.4-275.9-194-284.1-195.8-2.1-0.5-4.2-0.8-6.2-0.8z m264.4 524c-62.8-35.7-200.1-122.1-254.9-221.1-53.3-96.3-14.9-199.9 4.8-241.2 48.7 15.2 171.2 62.1 226.6 162.3 52.9 95.6 35.7 235.2 23.5 300zM646.9 37.9c-6.9 0-13.8 2.5-19.2 7.5-11.5 10.6-12.2 28.5-1.6 40 184.4 199.3 257.2 466.7 258 469.4 4 15.1 19.5 24.1 34.6 20 15.1-4 24.1-19.5 20-34.6-3.1-11.5-76.9-283.3-271.1-493.2-5.5-6-13.1-9.1-20.7-9.1zM476.3 15.3h-1C159 26.7 76.3 253.4 72.9 263c-74.6 235.6 14.2 506.1 18 517.5 3.8 11.5 14.5 19.2 26.6 19.3h0.2c12 0 22.7-7.6 26.7-18.9 26.7-76 125.7-143.6 213-203.2 54.1-36.9 105.3-71.9 136.7-106.9 166.6-185.8 7.6-439.9 5.9-442.4-5.1-8.2-14.1-13.1-23.7-13.1zM127 697.3c-21.2-91.9-48.4-265.1-0.5-416.4 2.6-7.1 71.5-191.3 334-208.2 28 50.8 110.8 227.3-8.5 360.4-26.9 30-75.3 63-126.5 98C254 579.8 175.3 633.5 127 697.3zM476.2 15.3c-15.2 0-27.7 12.1-28.2 27.4-0.1 1.2-7.7 137.5-167 278.8C105.1 477.3 95.6 711.6 95.3 721.4c-0.5 15.6 11.7 28.6 27.3 29.1 15.5-0.1 28.7-11.7 29.2-27.3 0.1-2.2 9.4-220.2 166.6-359.6 178.9-158.5 185.8-312.8 186-319.3 0.5-15.6-11.7-28.7-27.3-29.2-0.3 0.2-0.6 0.2-0.9 0.2z"  horiz-adv-x="1024" />

    
    <glyph glyph-name="shengyin" unicode="&#58880;" d="M534.002 775.627c-9.072 0-18.606-3.172-26.314-9.534L280.869 570.125H121.643c-34.475 0-62.154-27.679-62.154-61.702l-0.452-268.551c0-34.023 28.131-62.145 62.606-62.145h161.494l223.648-176.016c8.159-6.805 17.241-9.517 26.313-9.517 21.761 0 41.73 16.782 41.73 41.271l0.904 700.873c0.462 24.508-19.951 41.289-41.73 41.289z m-20.873-699.968L321.244 226.724c-10.889 8.612-24.498 13.148-38.107 13.148H120.73l0.913 268.108 159.226 0.442c14.973 0 29.034 5.458 40.375 14.974L514.04 689.879l-0.911-614.22zM696.409 587.367c-14.07 9.516-33.58 5.44-42.652-8.63-9.517-14.052-5.44-33.562 8.629-42.635 48.075-32.215 77.119-85.288 77.119-141.992 0-54.879-27.219-106.605-72.582-138.803-14.07-9.994-17.242-29.044-7.266-43.096 5.901-8.63 15.417-13.166 25.41-13.166 6.344 0 12.688 1.824 17.686 5.9 61.702 44 98.436 114.775 98.436 189.625-0.001 77.118-39.002 149.241-104.78 192.797zM827.503 700.316c-12.705 11.341-32.215 10.438-43.557-2.268-11.34-12.705-10.419-32.198 2.269-43.539 74.407-66.699 117.043-161.502 117.043-260.399 0-96.629-39.003-186.435-109.777-253.134-12.244-11.784-13.148-31.294-1.364-43.539 5.9-6.361 14.07-9.533 22.682-9.533 7.708 0 15.435 2.729 21.318 8.63C919.135 175.459 964.96 281.161 964.96 394.57c0.442 115.678-49.458 227.263-137.457 305.746z"  horiz-adv-x="1024" />

    
    <glyph glyph-name="menjinxitong" unicode="&#58889;" d="M576 704v-640H448V704h128m128 128H320v-896h384V832zM320 320h384v-64H320zM238.08 293.12C227.2 300.8 192 333.44 192 448a252.16 252.16 0 0 0 38.4 147.2l51.2-38.4L256 576l25.6-19.2A202.88 202.88 0 0 1 256 448c0-81.92 19.84-103.04 20.48-103.04zM144 196.48C128 204.16 64 252.8 64 448a394.24 394.24 0 0 0 71.68 245.12l48.64-42.24-24.32 21.12 24.32-20.48A334.08 334.08 0 0 1 128 448c0-160 48.64-197.12 49.28-197.12zM785.92 293.12l-35.84 53.76A192 192 0 0 1 768 448a202.88 202.88 0 0 1-25.6 108.8l51.2 38.4A252.16 252.16 0 0 0 832 448c0-114.56-35.2-147.2-46.08-154.88zM880 196.48l-32 55.04S896 289.28 896 448a334.08 334.08 0 0 1-56.32 203.52l48.64 41.6A394.24 394.24 0 0 0 960 448c0-195.2-64-243.84-80-251.52z"  horiz-adv-x="1024" />

    
    <glyph glyph-name="bianpeidian" unicode="&#58890;" d="M840.32 603.52v-448h-640v448h640m128 128h-896v-704h896v704zM192 832h128v-96H192zM704 832h128v-96h-128zM192 32h128V-64H192zM704 32h128V-64h-128zM396.16 167.04l-40.32 104.32 143.36 55.68-140.8 47.36-2.56 104.96 288 112 40.32-104.32-143.36-55.68 140.8-46.72 2.56-105.6-288-112z"  horiz-adv-x="1024" />

    
    <glyph glyph-name="nengyuan1" unicode="&#58916;" d="M934.01 207.78c-10.81 40.25-36.69 74.09-72.96 95-0.43 0.28-0.85 0.43-1.28 0.71 0.43 6.68 0.57 13.37 0.57 20.19 0 135.96-78.22 253.86-191.99 311.17v1.71c0 86.33-70.11 156.44-156.44 156.44s-156.44-70.11-156.44-156.44v-1.71c-113.77-57.31-191.99-175.2-191.99-311.16 0-6.83 0.14-13.51 0.57-20.19-0.43-0.28-0.85-0.43-1.28-0.71-36.26-20.91-62.15-54.75-72.96-95-10.81-40.39-5.26-82.63 15.64-118.75 20.91-36.12 54.61-62.01 95-72.96 13.51-3.56 27.16-5.26 40.67-5.26 27.16 0 53.9 7.11 78.08 20.91 0.43 0.28 1 0.57 1.42 0.85 54.89-36.12 120.6-57.31 191.28-57.31s136.39 21.19 191.28 57.31c0.43-0.28 1-0.57 1.42-0.85 24.18-13.8 50.91-20.91 78.08-20.91 13.51 0 27.16 1.71 40.67 5.26 40.39 10.95 74.09 36.83 95 72.96 20.92 36.11 26.47 78.35 15.66 118.74z m-422.1 499.89c28.73 0 53.47-17.07 64.71-41.67 4.12-8.96 6.4-18.92 6.4-29.44 0-21.62-9.67-40.96-24.89-53.9-12.37-10.81-28.59-17.21-46.22-17.21s-33.85 6.4-46.22 17.21c-15.22 12.94-24.89 32.28-24.89 53.9 0 10.52 2.27 20.48 6.4 29.44 11.24 24.61 35.98 41.67 64.71 41.67zM222.5 98.56c-18.35 4.98-33.56 16.64-43.09 33.14-6.4 11.24-9.53 23.47-9.53 35.41 0 14.79 4.69 29.3 13.23 41.39 5.69 8.11 13.23 15.07 22.33 20.34 10.95 6.26 23.04 9.53 35.41 9.53 6.12 0 12.37-0.71 18.49-2.42 1.71-0.43 3.56-1 5.12-1.71 16.07-5.55 29.44-16.5 38.11-31.43 8.82-15.36 11.24-32.57 8.39-48.64-3.84-19.63-15.79-37.69-34.42-48.5a67.438 67.438 0 0 0-28.59-9.1c-8.39-1-17.06-0.29-25.45 1.99z m289.41-37.97c-47.93 0-92.87 12.8-131.69 35.55 4.98 9.67 8.96 19.91 11.81 30.58 10.81 40.39 5.26 82.63-15.65 118.75-20.91 36.12-54.61 62.01-95 72.96-10.81 2.84-21.76 4.55-32.57 5.12v0.14c0 97.28 53.05 182.46 131.84 227.83 27.87-42.95 76.23-71.39 131.27-71.39s103.39 28.44 131.27 71.39c78.79-45.37 131.84-130.55 131.84-227.83v-0.14c-10.81-0.57-21.76-2.28-32.57-5.12-40.39-10.95-74.09-36.83-95-72.96-20.91-36.12-26.45-78.36-15.65-118.75 2.85-10.67 6.83-20.91 11.81-30.58-38.84-22.75-83.78-35.55-131.71-35.55z m332.5 71.1c-9.53-16.5-24.75-28.16-43.09-33.14-6.12-1.71-12.37-2.42-18.49-2.42-2.28 0-4.69 0.14-6.97 0.43a67.438 67.438 0 0 0-28.59 9.1c-18.63 10.81-30.58 28.87-34.42 48.5 0 0 0.14 0 0 0.14-2.85 16.07-0.43 33.28 8.39 48.5 8.68 14.93 22.04 25.88 38.11 31.43v0.14c1.56 0.57 3.41 1.14 5.12 1.56 6.11 1.71 12.37 2.42 18.49 2.42 12.37 0 24.46-3.27 35.41-9.53 9.1-5.26 16.64-12.23 22.33-20.34v-0.14c15.66-21.89 18.08-51.76 3.71-76.65z"  horiz-adv-x="1024" />

    
    <glyph glyph-name="diandeng-dengpao-zhaoming" unicode="&#59278;" d="M504.33736399 790.433254c16.631605 0 27.716498 10.555821 27.716497 26.385286v52.78764c0 15.837999-11.084892 26.39382-27.716497 26.39382-16.623072 0-27.707964-10.555821-27.707965-26.39382V816.827074c0-15.837999 11.084892-26.39382 27.707965-26.39382zM909.59727399 593.7382809999999h-49.809482c-14.941991 0-24.909008-10.461954-24.909007-26.146351 0-15.692931 9.967016-26.154885 24.909007-26.154885h49.809482c14.941991 0 24.909008 10.461954 24.909008 26.154885s-9.967016 26.146351-24.909008 26.146351zM151.58349099 593.7382809999999H101.77400899c-14.950525 0-24.909008-10.461954-24.909008-26.146351 0-15.692931 9.958483-26.154885 24.909008-26.154885h49.809482c14.941991 0 24.900474 10.461954 24.900474 26.154885 0.008533 15.692931-9.958483 26.146351-24.900474 26.146351zM214.90988499 710.782457c10.564355-10.564355 25.002875-10.214485 36.104834 0.87894 11.101959 11.101959 11.451829 25.54048 0.887474 36.104834l-35.225893 35.225894c-10.572888 10.572888-25.011408 10.214485-36.104834-0.878941-11.093426-11.093426-11.443295-25.531946-0.878941-36.104834l35.21736-35.225893zM758.98268599 734.582122l35.225893 35.225893c10.564355 10.564355 10.214485 25.011408-0.87894 36.104834-11.093426 11.093426-25.54048 11.443295-36.104835 0.878941l-35.225893-35.225894c-10.564355-10.564355-10.214485-25.011408 0.878941-36.104834 11.101959-11.101959 25.54048-11.451829 36.104834-0.87894zM504.33736399 767.870932c-179.747631 0-325.984583-117.419645-325.984583-261.745114 0-93.927183 26.79489-141.654514 126.610121-269.698248 89.097276-103.100593 77.440645-134.358453 62.694923-173.927849l-0.657072-1.749348c-3.114693-8.277402-6.630455-17.672681-9.386745-33.997083l-5.000575-29.619447c-0.068267-0.307203-0.102401-0.622939-0.153602-0.930141l-0.298669-1.783482h0.119468c-0.119468-1.058142-0.324269-2.090684-0.324269-3.174426 0-65.749881 66.978691-119.245794 149.308977-119.245794h6.886458c81.929216 0 148.583638 53.495912 148.583638 119.245794 0 1.092276-0.196268 2.116284-0.32427 3.174426h0.093868l-0.230402 1.390945c-0.085334 0.503471-0.145068 1.006942-0.256002 1.501879l-4.949375 29.414645c-2.75629 16.44387-6.314719 25.915949-10.035283 35.848832-14.967591 40.149668-25.779415 69.163243 64.0944 173.228111C802.12757899 360.33260299999995 830.32194699 410.799157 830.32194699 505.195677c0 144.837474-146.228419 262.675256-325.984583 262.675255z m96.965074-776.633672c0-34.594422-42.658489-63.821332-93.159176-63.821332h-6.886457c-50.893224 0-93.884516 29.22691-93.884516 63.821332 0 1.092276-0.196268 2.116284-0.324269 3.174427h194.570154c-0.110934-1.049609-0.315736-2.082151-0.315736-3.174427z m-21.845515 84.830574c1.800548-8.601672 4.232569-17.280144 7.296061-26.231685H422.00707799c3.114693 8.943008 5.61498 17.62148 7.483795 26.231685h149.96605z m82.825224 194.877357c-51.482029-59.588763-76.0241-101.922983-83.499363-139.452895H532.05386099V400.644405c24.550605 4.667772 48.35027 15.650264 65.417079 23.577797 13.883849 6.451254 19.908433 22.929258 13.457179 36.804573-6.451254 13.883849-22.937791 19.925499-36.804574 13.457179-17.749481-8.243269-44.587038-20.710573-64.137068-20.710573-25.915949 0-51.012692 7.005925-72.593671 20.275369-13.064642 8.004333-30.114384 3.9595-38.118718-9.096609-8.0214-13.039042-3.942433-30.105851 9.096609-38.118717 20.85564-12.825707 44.075034-21.15431 68.258702-25.310078v-270.03105h-45.892649c-7.057125 37.811515-31.309061 80.35907-82.953224 140.084367-96.956541 124.434104-114.006283 159.506396-114.006284 234.540621 0 113.767348 121.379145 206.320653 270.560122 206.320653S774.90601799 619.466496 774.90601799 505.195677c0-75.384095-18.039617-112.760406-112.623871-234.250486z"  horiz-adv-x="1024" />

    
    <glyph glyph-name="5-xinxi" unicode="&#59495;" d="M341.3-21.3c-7.8 0-15.6 2.1-22.4 6.4-12.6 7.8-20.2 21.5-20.2 36.3v91.5C166.4 177.4 85.3 295.5 85.3 426.7c0 200 191.4 362.7 426.7 362.7 235.2 0 426.7-162.7 426.7-362.7 0-197-185.8-357.9-416.4-362.6l-161.9-80.9c-6-3-12.5-4.5-19.1-4.5zM512 704c-188.2 0-341.3-124.4-341.3-277.3 0-104.5 71.7-199.1 187-246.9 15.9-6.6 26.3-22.2 26.3-39.4v-50l108.9 54.5c5.9 3 12.5 4.5 19.1 4.5 188.2 0 341.3 124.4 341.3 277.3S700.2 704 512 704z"  horiz-adv-x="1024" />

    
    <glyph glyph-name="shipinjiankong" unicode="&#58899;" d="M479.13568 480m-160 0a160 160 0 1 1 320 0 160 160 0 1 1-320 0ZM618.46368 185.6l144-249.472-83.136-48-144 249.408zM63.13568-32m48 0l736 0q48 0 48-48l0 0q0-48-48-48l-736 0q-48 0-48 48l0 0q0 48 48 48ZM205.40768-53.888l132.8 230.016 83.136-48-132.8-230.016zM479.13568 64A416 416 0 1 0 895.13568 480 416.64 416.64 0 0 0 479.13568 64z m0 736a320 320 0 1 1 320-320 320 320 0 0 1-320 320z"  horiz-adv-x="1024" />

    


  </font>
</defs>
</svg>
